# xmcd
#
# Track frame offsets: 
#        150
#        18697
#        37127
#        49519
#        69893
#        83961
#        107693
#        121477
#        139503
#        151401
#        168090
#        201857
#        211400
#        234862
#        252029
#        268355
#        288318
#        317586
#        333044
#        349651
#
# Disc length: 4805 seconds
#
# Revision: 2
# Processed by: cddbd v1.5.2PL0 Copyright (c) Steve Scherf et al.
# Submitted via: ExactAudioCopyFreeDBPlugin 1.0
#
DISCID=1812c314
DTITLE=Mike Oldfield - 1999 The Millennium Bell and 1999 Guitars (Bonus)
DYEAR=1900
DGENRE=
TTITLE0=01 Peace On Earth
TTITLE1=02 Pacha Mama
TTITLE2=03 Santa Maria
TTITLE3=04 Sunlight Shining Through Cloud
TTITLE4=05 The Doge's Palace
TTITLE5=06 Lake Constance
TTITLE6=07 Mastermind
TTITLE7=08 Broad Sunlit Uplands
TTITLE8=09 Liberation
TTITLE9=10 Amber Light
TTITLE10=11 The Millennium Bell
TTITLE11=12 Muse (Bonus)
TTITLE12=13 Cochise (Bonus)
TTITLE13=14 Embers (Bonus)
TTITLE14=15 Summit Day (Bonus)
TTITLE15=16 B. Blues (Bonus)
TTITLE16=17 Four Winds (Bonus)
TTITLE17=18 Enigmatism (Bonus)
TTITLE18=19 Out Of Mind (Bonus)
TTITLE19=20 From The Ashes (Bonus)
EXTD=
EXTT0=
EXTT1=
EXTT2=
EXTT3=
EXTT4=
EXTT5=
EXTT6=
EXTT7=
EXTT8=
EXTT9=
EXTT10=
EXTT11=
EXTT12=
EXTT13=
EXTT14=
EXTT15=
EXTT16=
EXTT17=
EXTT18=
EXTT19=
PLAYORDER=
